# xmcd
#
# Track frame offsets:
#	150
#	20950
#	43462
#	63122
#	83057
#	100073
#	124130
#	150061
#	168096
#	193079
#	219945
#	237905
#	259376
#	280164
#	298427
#
# Disc length: 4183 seconds
#
# Revision: 3
# Processed by: cddbd v1.5.2PL0 Copyright (c) Steve Scherf et al.
# Submitted via: EasyCDDAExtractor 2010.6.0.0
#
DISCID=d710550f
DTITLE=Voz Da Verdade - O Melhor De Deus Esta Por Vir
DYEAR=2003
DGENRE=Gospel
TTITLE0=Manifesta-Te, Senhor
TTITLE1=O Melhor De Deus Esta Por Vir
TTITLE2=Posso
TTITLE3=O Escudo
TTITLE4=Genesis
TTITLE5=O Maior Dos Sonhos
TTITLE6=O Verdadeiro Adorador
TTITLE7=Guerreiros
TTITLE8=Coracao Puro
TTITLE9=Guarda-Me, Oh, Deus
TTITLE10=Invisivel
TTITLE11=Ate O Fim
TTITLE12=Confissao
TTITLE13=Clamai Cantando
TTITLE14=Quando A Noite Chegar
EXTD=
EXTT0=
EXTT1=
EXTT2=
EXTT3=
EXTT4=
EXTT5=
EXTT6=
EXTT7=
EXTT8=
EXTT9=
EXTT10=
EXTT11=
EXTT12=
EXTT13=
EXTT14=
PLAYORDER=
